<?xml version="1.0" standalone="no"?><!DOCTYPE svg PUBLIC "-//W3C//DTD SVG 1.1//EN" "http://www.w3.org/Graphics/SVG/1.1/DTD/svg11.dtd"><svg class="icon" width="200px" height="200.00px" viewBox="0 0 1024 1024" version="1.1" xmlns="http://www.w3.org/2000/svg"><path fill="#333333" d="M597.333333 746.666667c0-29.866667 8.533333-59.733333 25.6-85.333334L512 550.4l-110.933333 110.933333c17.066667 25.6 25.6 55.466667 25.6 85.333334 0 93.866667-76.8 170.666667-170.666667 170.666666s-170.666667-76.8-170.666667-170.666666 76.8-170.666667 170.666667-170.666667c29.866667 0 59.733333 8.533333 85.333333 25.6l110.933334-110.933333-311.466667-311.466667c-17.066667-17.066667-17.066667-42.666667 0-59.733333 17.066667-17.066667 42.666667-17.066667 59.733333 0L682.666667 601.6c25.6-17.066667 55.466667-25.6 85.333333-25.6 93.866667 0 170.666667 76.8 170.666667 170.666667s-76.8 170.666667-170.666667 170.666666-170.666667-76.8-170.666667-170.666666z m-426.666666 0c0 46.933333 38.4 85.333333 85.333333 85.333333s85.333333-38.4 85.333333-85.333333c0-21.333333-8.533333-42.666667-25.6-59.733334-17.066667-17.066667-38.4-25.6-59.733333-25.6-46.933333 0-85.333333 38.4-85.333333 85.333334z m537.6-59.733334c-17.066667 17.066667-25.6 38.4-25.6 59.733334 0 46.933333 38.4 85.333333 85.333333 85.333333s85.333333-38.4 85.333333-85.333333-38.4-85.333333-85.333333-85.333334c-21.333333 0-42.666667 8.533333-59.733333 25.6z m-119.466667-273.066666c-17.066667-17.066667-17.066667-42.666667 0-59.733334l234.666667-234.666666c17.066667-17.066667 42.666667-17.066667 59.733333 0 8.533333 8.533333 12.8 17.066667 12.8 29.866666 0 12.8-4.266667 21.333333-12.8 29.866667l-234.666667 234.666667c-8.533333 8.533333-21.333333 12.8-29.866666 12.8-12.8 0-21.333333-4.266667-29.866667-12.8z" /></svg>